# xmcd
#
# Track frame offsets: 
#        150
#        16965
#        34072
#        56140
#        76610
#        98700
#        113647
#        139317
#        156427
#        173525
#        199582
#        215780
#        231732
#
# Disc length: 3397 seconds
#
# Revision: 3
# Processed by: cddbd v1.5.2PL0 Copyright (c) Steve Scherf et al.
# Submitted via: ExactAudioCopy v1.0b3
#
DISCID=af0d430d
DTITLE=David Raitt and Jimmy Thackery - That's It!
DYEAR=2000
DGENRE=Blues
TTITLE0=I'd Rather Be Blind, Crippled and Crazy
TTITLE1=Tell Me
TTITLE2=Me
TTITLE3=Same Thing
TTITLE4=How Many More Years
TTITLE5=Seven Days
TTITLE6=Watch Your Back
TTITLE7=It Takes Time
TTITLE8=Cheaper to Keep Her
TTITLE9=That's It
TTITLE10=Driving Wheel
TTITLE11=Dirty and in Love
TTITLE12=Cold Heart
EXTD=YEAR: 2000 ID3G:   0
EXTT0=
EXTT1=
EXTT2=
EXTT3=
EXTT4=
EXTT5=
EXTT6=
EXTT7=
EXTT8=
EXTT9=
EXTT10=
EXTT11=
EXTT12=
PLAYORDER=
